<svg width="640" height="480" xmlns="http://www.w3.org/2000/svg">
  <path d="m159.357193,233.138672c0,105.532837 71.919052,191.119904 160.63475,191.119904c88.686523,0 160.605591,-85.58786 160.605591,-191.119904c0,-105.532829 -71.919067,-191.120663 -160.605591,-191.120663c-88.715698,0 -160.63475,85.587841 -160.63475,191.120663l0,0z" id="path7" stroke-miterlimit="10" stroke-width="0.036" stroke="black" fill-rule="evenodd"/>
  <path d="m162.774963,233.478653c0,103.776321 70.692139,187.947617 157.888855,187.947617c87.195923,0 157.888885,-84.171295 157.888885,-187.947617c0,-103.804642 -70.692169,-187.975952 -157.888885,-187.975952c-87.196716,0 -157.888855,84.171295 -157.888855,187.975952l0,0z" id="path9" stroke-miterlimit="10" stroke-width="0.036" stroke="black" fill-rule="evenodd" fill="#ffd4aa"/>
  <path d="m173.466415,198.943207c-0.993195,-3.824677 -2.775101,-6.544449 -5.46257,-8.499298c-2.687469,-1.954834 -6.309708,-3.003067 -10.54541,-3.031403c-4.352524,-0.084991 -11.041992,-0.226654 -15.219254,2.634781c-4.264893,2.833099 -7.624237,7.819351 -9.961166,14.193817c-2.453781,6.289459 -4.557014,15.582016 -4.294113,23.28804c0.233688,7.677689 1.869553,16.63028 6.046814,22.154037c4.118835,5.439529 13.787888,8.925034 18.75386,10.02916c4.819916,0.878265 7.741089,-1.557434 10.340927,-4.362991c2.570618,-2.833069 4.118835,-6.997742 4.878342,-12.493942l0,0l5.46257,-43.912201l0,0z" id="path11" stroke-miterlimit="10" stroke-width="0.036" stroke="black" fill-rule="evenodd"/>
  <path d="m164.702927,208.235764c-0.408966,-1.189896 -2.541412,-3.229721 -4.498596,-4.164642c-2.07402,-1.048248 -5.024399,-2.181488 -7.624237,-1.529877c-2.716675,0.623276 -5.871536,2.124817 -8.003983,5.496201c-2.161667,3.371384 -4.06041,9.292557 -4.469376,14.392136c-0.467392,5.042908 0.029205,12.153992 1.927963,15.52536c1.869553,3.229736 6.309708,4.079651 9.376938,3.966339c2.921158,-0.226654 7.361328,-3.513031 8.588211,-4.929581c1.110046,-1.473221 0.087646,-3.768036 -1.37294,-3.598038c-1.489792,0.141663 -5.053619,3.994659 -7.215271,4.561279c-2.307724,0.481628 -4.44017,-0.084991 -5.842331,-1.69986c-1.402161,-1.72818 -2.161667,-4.561279 -2.161667,-8.159317c-0.058411,-3.683029 0.671875,-9.944168 1.957184,-13.428879c1.197678,-3.513031 3.505402,-6.289459 5.46257,-7.564362c1.927979,-1.388214 4.235687,-1.048248 6.251297,-0.396637c1.927963,0.651611 4.118835,3.824677 5.46257,4.164658c1.226898,0.169983 2.512207,-1.473221 2.161667,-2.634781l0,0z" id="path15" stroke-miterlimit="10" stroke-width="0.036" stroke="black" fill-rule="evenodd"/>
  <path d="m469.380249,200.586395c0.963989,-3.796341 2.745911,-6.601105 5.461761,-8.527618c2.658264,-1.983154 6.164459,-2.946426 10.516174,-3.003067c4.323334,-0.085007 10.983582,-0.226654 15.248474,2.634766c4.207306,2.833099 7.478973,7.819351 9.931946,14.193817c2.36618,6.289474 4.469391,15.582031 4.294159,23.288055c-0.32135,7.677689 -1.957214,16.63028 -6.046844,22.1548c-4.206482,5.438751 -13.904724,8.924255 -18.723816,10.028381c-4.908386,0.878265 -7.828735,-1.557404 -10.340942,-4.362946c-2.599854,-2.83313 -4.148041,-6.997772 -4.87915,-12.493988l0,0l-5.461761,-43.912201l0,0z" id="path17" stroke-miterlimit="10" stroke-width="0.036" stroke="black" fill-rule="evenodd"/>
  <path d="m478.143738,209.878952c0.350525,-1.189896 2.453796,-3.229721 4.498596,-4.164642c1.986389,-1.048248 4.965973,-2.181488 7.595001,-1.529877c2.657471,0.623276 5.81311,2.124817 8.003174,5.496201c2.045624,3.371399 4.032013,9.292557 4.49942,14.392136c0.37973,5.042908 -0.087646,12.153992 -1.957184,15.525375c-1.986389,3.229736 -6.339722,4.079651 -9.348541,3.966339c-3.008789,-0.226654 -7.448944,-3.513046 -8.588196,-4.929596c-1.139282,-1.473221 -0.204498,-3.768005 1.343719,-3.598038c1.402161,0.141663 5.024414,3.994675 7.244476,4.561295c2.190887,0.424957 4.440186,-0.113327 5.842346,-1.728195c1.343719,-1.756516 2.015594,-4.504623 2.132446,-8.130981c-0.058441,-3.683029 -0.70108,-9.944168 -1.927979,-13.428879c-1.256104,-3.598038 -3.563812,-6.232803 -5.462585,-7.592697c-2.014771,-1.41655 -4.32251,-0.991592 -6.250458,-0.368317c-2.015594,0.651627 -4.177246,3.824692 -5.462585,4.164658c-1.314514,0.169998 -2.599854,-1.473206 -2.161652,-2.634781l0,0z" id="path21" stroke-miterlimit="10" stroke-width="0.036" stroke="black" fill-rule="evenodd"/>
  <path d="m306.905151,366.152557c-0.759521,-0.311646 -2.804321,1.587341 -2.658264,2.210602c0.204468,0.594971 3.271698,1.813171 3.797516,1.473206c0.379761,-0.3974 -0.525818,-3.485504 -1.139252,-3.683807l0,0z" id="path53" stroke-miterlimit="10" stroke-width="0.036" stroke="black" fill-rule="evenodd"/>
  <path d="m168.588074,246.085922c-0.467392,-1.444885 -1.05162,-2.03981 -1.752701,-1.898163c-0.70108,0.198303 -1.548218,1.104904 -2.541412,2.833099c-1.168457,1.671524 -2.424561,5.042908 -4.08963,6.827759c-1.72348,1.643967 -3.008789,3.060532 -5.667053,3.032181c-2.745895,-0.141632 -6.806305,-1.558197 -10.136429,-3.598007c-3.359344,-2.152374 -7.47818,-5.014587 -9.756699,-8.697617c-2.39534,-3.739685 -3.651443,-8.187653 -4.118835,-13.457199l0,0c-0.262909,-0.963257 -0.087631,-3.173065 0.408966,-6.629456c0.496597,-3.569702 1.256104,-9.689194 2.716675,-14.193817c1.431381,-4.646271 3.242493,-9.660858 5.667068,-12.862244c2.39534,-3.201401 5.258087,-5.212891 8.588211,-6.261139c3.154861,-1.189911 7.741089,-0.764938 10.720673,-0.56662c2.862747,0.141647 5.024399,0.651611 6.835526,1.529861c1.72348,0.84993 3.067215,1.98317 3.914352,3.399719c0.847137,1.274902 0.555023,3.654694 1.168472,4.532959c0.555023,0.821594 1.226883,1.048248 2.132446,0.566605c0.817917,-0.566605 1.694275,-1.558197 2.74588,-3.399704l0,0c-2.278503,16.261185 -4.557007,32.551498 -6.83551,48.841782l0,0z" id="path13" fill-rule="evenodd" fill="#ffd4aa"/>
  <path d="m474.258575,247.729126c0.438202,-1.44487 1.02243,-2.039841 1.752716,-1.898163c0.613434,0.198303 1.460571,1.104904 2.541412,2.833084c1.139221,1.671539 2.395325,5.042923 4.08963,6.828537c1.66507,1.643219 2.921967,3.059753 5.667053,3.031433c2.65744,-0.141663 6.74707,-1.558197 10.136414,-3.598053c3.270905,-2.124802 7.419769,-5.07045 9.75589,-8.725922c2.36615,-3.768021 3.593018,-8.130981 4.118866,-13.428879l0,0c0.233704,-0.963257 0.058411,-3.173065 -0.408997,-6.62944c-0.584229,-3.569702 -1.343719,-9.689194 -2.717499,-14.193817c-1.460571,-4.646286 -3.270874,-9.660858 -5.66626,-12.862259c-2.483765,-3.201401 -5.345703,-5.212891 -8.588196,-6.261139c-3.300903,-1.189911 -7.828735,-0.764938 -10.749878,-0.56662c-2.950378,0.141647 -5.11203,0.651611 -6.83551,1.529877c-1.841156,0.84993 -3.096436,1.98317 -3.885162,3.399704c-0.934753,1.274902 -0.613434,3.654709 -1.168457,4.532959c-0.613464,0.821594 -1.372131,1.048248 -2.161652,0.56662c-0.847137,-0.56662 -1.751892,-1.558212 -2.716675,-3.399719l0,0c2.279297,16.2612 4.5578,32.551498 6.836304,48.841797l0,0z" id="path19" fill-rule="evenodd" fill="#ffd4aa"/>
</svg>