<svg
   xmlns:svg="http://www.w3.org/2000/svg"
   xmlns="http://www.w3.org/2000/svg"
   width="744.09448"
   height="260"
   id="svg2">

    <path
       style="fill:black"
       d="M 510.91152,113.95521 C 498.45398,120.14262 492.12282,123.80173 482.45448,130.49346 C 476.6101,134.5385 471.39795,138.45492 470.87611,139.17438 C 470.35427,139.8938 468.7675,140.80051 467.36129,141.17127 C 465.95504,141.54194 465.00649,142.35768 465.2484,142.95264 C 465.49035,143.54762 464.66396,144.66381 463.43259,145.46445 C 461.44218,146.75859 461.49676,146.80872 463.4975,146.14736 C 464.73528,145.73821 466.7249,146.04593 467.955,146.81726 C 469.8843,148.02688 470.74467,147.80747 474.35206,145.27969 C 478.5925,142.30829 484.48839,140.72738 485.15831,142.37461 C 485.35999,142.87055 482.23481,145.89448 478.18104,149.11344 C 474.12721,152.33238 470.34258,155.9754 469.74703,157.15403 C 469.33923,168.65805 489.68037,184.72687 490.47572,184.40342 C 491.3698,184.03979 492.46522,185.10948 493.29794,187.15698 C 494.4249,189.92821 494.92503,190.18534 496.43178,188.93263 C 497.6115,187.9518 499.05179,187.98599 500.55611,188.95776 C 501.81887,189.77348 503.85517,190.19774 505.07647,189.95674 C 508.18888,189.34246 509.49284,191.32791 507.13218,193.09296 C 506.0492,193.90267 505.35978,195.18845 505.67224,195.95656 C 506.11398,197.0428 506.46299,196.95112 507.06079,195.53372 C 508.16044,192.9266 509.07757,192.83665 510.80451,195.14616 C 511.6379,196.26081 512.68367,196.67711 513.15235,196.0356 C 514.61302,194.03627 520.26833,196.92152 520.49496,199.78814 C 520.70832,202.48641 522.84375,202.57209 522.87486,199.8843 C 522.88789,198.75272 523.45605,198.7096 524.86275,199.71423 C 525.94305,200.48586 527.75883,200.7354 528.91689,200.26445 C 530.10415,199.78158 531.26873,200.11712 531.65468,201.06623 C 532.03112,201.99193 532.7679,202.26578 533.23195,201.63064 C 533.69592,200.99552 534.93057,200.74383 535.98636,201.07794 C 537.04215,201.41203 538.55527,201.0215 539.34943,200.2777 C 540.76663,198.95037 541.39704,199.54926 545.18783,205.56411 C 546.23171,207.22046 546.59263,206.63879 547.30395,202.22089 C 547.77699,199.28261 547.54314,195.71835 546.77023,194.28063 C 545.99726,192.84296 545.93327,192.00487 546.64972,192.41447 C 547.36614,192.82406 549.6254,193.06971 551.61887,192.94717 C 554.49306,192.77052 555.95443,193.6165 558.86653,197.16393 C 562.284,201.32702 565.05197,202.65275 563.80973,199.55149 C 563.51176,198.80768 564.76771,199.21888 566.59704,200.47501 L 569.89281,202.82321 L 569.37622,199.98318 C 568.8279,197.21793 568.8506,197.25792 570.58015,199.28076 C 572.99891,202.10968 575.13385,199.66396 573.5865,195.85921 C 572.90215,194.17643 571.88253,192.71743 571.27396,192.61464 C 570.66536,192.51182 570.96048,193.86358 571.95043,195.67338 L 573.72656,198.99425 L 571.05489,196.9597 C 569.5802,195.82943 568.06854,195.27461 567.72912,195.75864 C 567.38968,196.24264 565.68425,195.52512 563.87623,194.13356 L 560.56707,191.578 L 563.86726,190.44867 C 568.99148,188.63883 574.11168,190.50683 576.04593,194.92995 C 576.94511,196.98618 577.63573,197.98019 577.58386,197.14181 C 577.44831,194.94753 582.29932,195.65538 583.23797,197.96346 C 583.76346,199.25563 584.20316,199.26177 584.70285,198.07706 C 585.20251,196.89229 584.43446,195.62619 582.01694,193.56566 C 580.16746,191.98931 578.6761,191.43476 578.7273,192.27895 C 578.89239,195.00182 577.14296,194.59878 576.14936,191.69589 C 575.36478,189.40356 575.63207,188.83171 577.62069,188.68581 C 578.96453,188.58721 580.82855,188.22224 581.77706,187.91763 C 582.78373,187.59433 584.05748,188.4616 584.82732,190.01099 C 587.34979,195.08771 593.58691,198.58634 591.71911,193.87594 C 591.26594,192.73318 591.45138,192.31999 592.21332,192.82378 C 593.45404,193.64398 597.98217,193.92733 597.66944,193.15846 C 597.58178,192.94298 595.41616,191.75741 592.85932,190.57494 C 585.6789,187.25414 585.90629,186.11233 594.47543,183.03719 C 598.55142,181.57441 602.45891,180.21817 603.10914,180.02256 C 603.75933,179.82693 606.74496,180.59953 609.75662,181.71701 C 616.00617,184.03598 616.57718,183.24678 610.67688,180.49153 C 604.55728,177.63385 607.49442,177.68006 618.68209,180.64078 C 624.30021,182.12755 628.75411,182.90708 628.53886,182.37781 C 628.32358,181.84851 627.47677,181.33355 626.71407,181.20473 C 625.95133,181.07588 625.17254,180.15223 624.95744,179.15273 C 624.74227,178.1532 623.79064,177.40821 622.84899,177.45657 C 621.7043,177.51541 621.63698,177.86221 622.58688,178.55625 C 623.49838,179.2222 623.43203,179.47607 622.46922,179.31343 C 621.64379,179.174 620.93989,178.25572 620.91991,177.24804 C 620.89433,175.96026 620.1849,175.72239 618.38949,176.43287 C 615.33774,177.64051 607.58151,175.90801 610.50927,174.67227 C 611.50793,174.25073 612.77577,174.20099 613.3152,174.59515 C 613.85465,174.98926 616.06517,174.94938 618.24419,174.50583 C 620.42318,174.06228 623.90629,174.19192 625.94504,174.77883 C 629.29498,175.74306 629.96777,175.3379 628.71812,173.22549 C 628.48248,172.82719 629.25609,172.44752 630.43373,172.38591 C 632.08975,172.29926 631.75051,171.90533 629.03296,170.6857 C 626.04336,169.34395 625.50626,169.45013 625.19229,171.18365 C 624.93507,172.60395 624.63563,172.74683 624.23181,171.78704 C 623.51357,170.07972 626.17394,167.47528 627.67765,168.39955 C 628.28447,168.7726 630.67017,169.70861 632.99744,170.49209 C 637.51526,172.0132 636.34696,170.44461 630.85813,167.6736 C 627.61865,166.03819 627.58321,165.99473 629.96906,165.83623 C 632.40112,165.67465 632.37477,165.69786 629.59776,164.92323 C 628.05908,164.49402 626.32362,164.63845 625.68282,165.23858 C 625.04202,165.83871 624.294,165.83527 624.06012,165.26011 C 623.44761,163.7541 625.34061,163.25792 634.81684,162.23327 C 645.0897,161.12247 644.7298,161.27695 641.26869,159.60946 C 637.45632,157.77266 638.30484,156.3238 642.69457,157.18531 C 644.91738,157.62153 646.03359,157.37232 645.71721,156.59445 C 645.44033,155.91375 644.3609,155.41637 643.33121,155.43681 C 642.30151,155.45722 641.21114,154.75858 640.88233,153.95006 C 640.51216,153.03989 641.01573,152.49049 642.26481,152.4657 C 643.9678,152.43189 643.95957,152.14766 642.16899,150.66041 C 639.68849,148.59997 637.85548,144.612 639.14182,144.08886 C 639.63206,143.88947 641.64125,144.46351 643.63949,145.3808 C 647.43412,147.12275 650.18219,147.06682 647.92166,145.27077 C 647.20154,144.69865 649.22237,145.5603 652.45949,147.18478 C 655.69656,148.80925 658.89193,149.8888 659.55049,149.62101 C 660.20908,149.35314 658.77436,148.24589 656.35174,147.16243 C 653.92909,146.07892 652.15207,144.68565 652.4051,144.08588 C 652.65805,143.48606 655.23156,142.04357 658.10908,140.84404 C 661.00622,139.63633 662.43597,138.74668 662.46264,138.29325 C 662.48929,137.83986 661.09961,137.83223 658.24133,138.37853 C 656.19917,138.76885 654.72564,138.58411 654.96913,138.00687 C 655.2126,137.42964 654.08371,136.83165 652.42327,136.63049 C 650.00409,136.33747 649.71911,136.06352 651.22052,135.41725 C 652.25106,134.9736 652.99781,134.38055 652.85987,134.04123 C 652.47291,133.08981 648.42166,131.5192 647.39359,131.93731 C 646.89009,132.14207 645.57047,130.11578 644.50035,127.43932 C 642.57263,122.61809 643.04319,120.6482 645.50135,123.27277 C 646.20263,124.02156 647.07665,124.19134 647.4438,123.68867 C 647.81101,123.18603 648.63072,123.14114 649.24911,123.59289 C 651.62289,125.32718 653.47645,123.17348 652.23073,120.11047 C 650.91013,116.86325 645.38121,111.33396 643.99617,111.89721 C 643.5462,112.08018 642.01085,111.25585 640.54463,110.03796 C 637.86023,107.80824 622.60845,103.00374 620.69304,103.78273 C 620.12685,104.01299 618.80953,103.76324 617.7613,103.20169 C 616.10176,102.31263 598.06305,100.50817 594.7723,100.91783 C 592.71669,101.1737 581.37686,101.77637 578.73191,101.76649 C 576.26866,101.75728 565.41734,102.76013 548.34079,104.47906 C 538.3855,105.48119 517.17945,110.84207 510.91152,113.95521 z M 508.55505,141.30065 C 512.6945,139.37855 512.91418,139.43811 514.97046,142.94762 C 526.93025,163.35967 534.97406,169.86797 550.15377,171.55377 C 557.86496,172.41013 559.15143,172.22146 568.28025,168.50899 C 575.01682,165.76935 578.43948,163.85959 579.25081,162.34511 C 579.90127,161.13082 580.57763,160.37505 580.73023,160.75039 C 580.88284,161.12569 582.8742,159.25443 585.18401,156.5274 C 590.85487,149.83224 594.19222,140.45469 593.39752,133.46773 C 592.63215,126.73929 593.26545,126.64713 606.46598,131.41596 C 611.11077,133.09395 616.3035,134.86491 618.00718,135.37623 C 619.7108,135.88759 621.58186,137.5383 622.17657,139.0006 C 623.62739,142.56809 623.35325,148.02707 621.65893,148.71614 C 620.90594,149.02233 619.83687,150.28628 619.32004,151.51157 C 617.97023,154.71174 605.98614,164.8816 597.17209,170.30748 C 588.34138,175.74352 573.69903,180.69774 565.69195,180.98185 C 556.18845,181.31903 541.31192,180.39393 534.48109,179.06248 C 523.1491,176.85358 505.51058,169.6084 501.3483,165.44048 C 494.48436,158.56706 493.90445,157.36023 495.82921,154.13675 C 496.71157,152.29062 497.91321,149.25223 500.95691,146.16397 C 502.34238,145.60051 503.69246,144.69966 503.91057,144.18253 C 504.12867,143.66539 506.20529,142.3917 508.55505,141.30065 z M 536.64114,136.8359 C 542.85139,137.09932 547.31897,153.64865 545.01729,155.54449 C 545.01729,155.54449 547.29107,162.50463 539.55902,158.74866 C 536.94561,157.47916 533.43963,154.53309 533.43963,154.53309 C 531.85142,150.62787 525.90353,145.63094 529.16558,139.14262 C 530.82356,137.35694 534.56787,136.78001 536.64114,136.8359 z M 509.51162,186.73439 C 510.10537,186.49291 510.81134,186.79062 511.05274,187.38442 C 511.29422,187.97821 510.9965,188.68412 510.40272,188.92559 C 509.80891,189.16706 509.10299,188.86934 508.86156,188.27556 C 508.62006,187.68176 508.91779,186.97584 509.51162,186.73439 z M 536.32956,192.852 C 536.46305,192.60801 536.68849,192.49222 537.05997,192.55496 C 537.80296,192.68045 538.64833,193.4956 539.01054,194.38623 C 539.37274,195.27688 539.11493,195.90633 538.37189,195.78088 C 537.62883,195.65536 536.69787,194.80421 536.33565,193.91352 C 536.15451,193.46818 536.19607,193.09601 536.32956,192.852 z M 554.35141,194.95699 C 553.7576,195.19843 553.53721,196.09441 553.8994,196.98504 C 554.26159,197.87571 555.06952,198.42435 555.66332,198.18289 C 556.25707,197.9414 556.45286,196.98462 556.0906,196.09394 C 555.72835,195.20327 554.94516,194.7155 554.35141,194.95699 z M 632.7133,163.51434 C 632.34637,163.58726 632.30945,163.91666 632.54816,164.50365 C 632.88969,165.3435 634.41355,166.21458 635.90276,166.47325 C 637.39189,166.73191 638.41251,166.53973 638.20634,166.03293 C 638.00024,165.52616 636.53724,164.6304 634.91264,164.03857 C 633.77715,163.62498 633.08024,163.44142 632.7133,163.51434 z M 600.65787,182.36717 C 600.15607,182.57121 600.08494,183.57483 600.48744,184.56446 C 600.8899,185.55406 601.38008,185.91519 601.60253,185.38776 C 601.82497,184.8603 603.28175,184.57493 604.80777,184.72266 C 606.18228,184.85569 606.83733,184.91278 606.80908,184.75996 C 606.7808,184.60716 606.00555,184.22507 604.52006,183.49195 C 602.87081,182.67798 601.15967,182.16311 600.65787,182.36717 z M 586.09942,188.42968 C 586.33812,188.38868 586.90935,188.73835 587.97168,189.37063 C 589.26204,190.13866 589.94835,190.82008 590.03265,191.29887 C 590.11694,191.77764 589.59118,192.02182 588.40063,191.82072 C 587.60813,191.68685 586.65482,190.72164 586.2654,189.70989 C 585.95452,188.90233 585.8607,188.47064 586.09942,188.42968 z M 593.78283,187.78762 C 593.12307,188.08403 594.85127,189.04462 597.65112,189.97392 C 600.45097,190.90322 603.97195,192.97717 605.48676,194.58995 L 608.2615,197.57565 L 606.03253,194.01335 C 603.30207,189.64543 600.46006,187.19508 599.57004,188.41326 C 599.19815,188.92225 598.05133,188.8554 596.95804,188.26967 C 595.86469,187.68392 594.4425,187.49124 593.78283,187.78762 z M 608.30072,185.28829 C 608.54216,185.88205 609.71826,186.61677 610.9095,186.99373 C 612.1177,187.37603 612.86073,187.25671 612.61578,186.65447 C 612.37428,186.06069 611.23442,185.24035 610.04314,184.86341 C 608.83488,184.48107 608.05579,184.68601 608.30072,185.28829 z "
       id="path1593" />
    <path
       id="path1608"
       d="M 622.03801,42.070028 C 620.91683,42.383378 620.53747,43.110518 621.21767,43.655288 C 621.89788,44.200038 622.85804,44.477418 623.32483,44.346968 C 623.79163,44.216458 624.06526,43.594228 624.0393,42.866588 C 624.01329,42.138968 623.15913,41.756648 622.03801,42.070028 z M 626.26288,43.751708 C 626.04341,44.017778 626.30919,44.678618 626.99644,45.881928 C 628.20579,47.999468 628.04193,48.503298 625.98563,48.273798 C 624.5287,48.111138 626.44616,49.334708 630.2477,50.999718 C 635.21794,53.176488 636.00312,54.086608 633.21011,54.164278 C 631.07377,54.223638 627.14449,53.400348 624.48802,52.383648 C 621.40514,51.203758 618.26548,51.191518 615.827,52.318588 C 613.72591,53.289738 611.08844,49.659208 609.95352,49.378418 C 606.83796,48.607568 599.07296,49.677958 600.35577,50.705158 C 602.90175,52.744168 598.95479,50.716618 593.47674,50.306018 C 585.73901,49.725978 584.49513,50.285048 590.02532,51.873378 C 596.06822,53.608958 592.5615,54.649508 584.38478,53.525358 C 575.5923,52.316488 573.95533,53.174048 581.04985,55.286158 C 586.73199,56.977768 586.78328,57.029538 582.11163,57.399998 C 579.44603,57.611378 571.80449,57.366548 565.10195,56.805918 C 550.71182,55.602288 549.12014,56.478398 562.09251,58.475768 C 571.89653,59.985308 572.17426,60.937338 562.59307,60.219148 C 559.39854,59.979698 556.10831,60.341628 555.16836,61.013858 C 554.22834,61.686028 552.79972,61.820108 552.10848,61.266448 C 551.41711,60.712818 549.401,60.655988 547.6112,61.167578 C 545.01266,61.910208 544.95997,62.182628 547.11115,62.512678 C 548.7004,62.756478 549.16126,63.791768 548.29737,65.043718 C 547.25964,66.547328 547.7493,66.618528 549.95447,65.409158 C 551.66593,64.470498 553.47151,64.105148 553.97775,64.510558 C 554.48388,64.915978 552.77841,65.897698 550.11342,66.796008 C 546.68664,67.951108 544.94817,67.791208 544.17084,66.121758 C 543.56626,64.823488 542.25132,63.946398 541.25358,64.225268 C 540.25586,64.504138 539.90697,65.199308 540.5391,65.705608 C 542.17835,67.018358 520.63347,75.650038 514.09907,75.342698 C 508.27065,75.068558 506.97596,76.176328 511.86527,77.247678 C 514.3157,77.784628 512.9824,78.501588 504.98364,80.979198 C 495.86692,83.803078 495.18372,83.801538 497.53503,81.102608 C 499.86102,78.432578 499.57117,78.399718 494.66828,80.623228 C 491.68645,81.975508 489.61517,82.540968 490.10767,81.822648 C 490.60004,81.104408 488.1878,81.207568 484.63903,82.145948 C 481.09026,83.084268 478.53128,84.220908 479.02774,84.618398 C 479.52407,85.015838 477.9606,85.541538 475.563,85.812858 C 470.07077,86.434228 473.34173,88.153468 479.02554,87.632238 C 481.15698,87.436778 479.27016,88.028278 474.79585,88.889868 C 470.32147,89.751488 465.51479,91.260308 464.1739,92.235518 C 462.64617,93.346518 465.62644,93.232768 472.05663,91.990808 C 482.59108,89.956118 487.94636,90.035278 480.50059,92.116528 C 478.20676,92.757698 476.39864,93.884188 476.42454,94.611828 C 476.45045,95.339418 477.5361,95.645858 478.8599,95.287058 C 480.46439,94.852218 480.25697,95.313728 478.36246,96.706758 C 473.52649,100.26277 480.46333,97.766508 486.80328,93.669428 C 492.76563,89.816328 508.29521,84.590888 510.63037,85.653368 C 511.44074,86.022088 510.10996,86.582668 507.71353,86.845358 C 505.3171,87.108018 503.36712,87.904958 503.39396,88.655388 C 503.4229,89.469878 501.06498,90.393988 497.55498,90.890148 C 492.85085,91.555098 491.77601,92.081858 492.28258,93.644468 C 492.7413,95.059428 491.21973,96.235058 486.62126,97.788208 C 475.24762,101.62965 477.65179,102.264 489.38748,98.521668 C 501.37662,94.698448 511.0379,93.345918 505.63705,96.239578 C 504.0632,97.082798 501.0632,98.569478 498.95916,99.537448 C 496.85514,100.50546 498.08774,100.13029 501.78076,98.748768 C 505.47375,97.367218 512.76569,95.097928 517.93194,93.706918 C 525.67124,91.623078 527.11758,90.892958 526.11057,89.462248 C 525.43836,88.507168 525.64153,87.484088 526.57876,87.222058 C 527.51599,86.960098 528.68751,87.355198 529.13059,88.090768 C 529.62004,88.903498 533.47826,84.172808 539.05394,82.467758 C 544.10042,80.924508 549.15739,79.783288 550.25302,79.940058 C 551.3485,80.096828 558.9022,78.612708 567.01598,76.685858 C 583.04444,72.879368 585.03811,72.773138 580.80408,76.071138 C 578.61577,77.775528 578.79657,77.857718 581.7994,76.320228 C 590.62421,71.801958 596.76788,69.680948 595.4413,71.603128 C 594.50793,72.955628 597.03675,76.944398 603.96186,75.008678 C 609.35172,73.502138 616.79451,76.439638 620.52373,76.467958 C 624.25283,76.496198 631.88815,75.602648 637.44035,74.451438 C 650.19114,71.807628 652.78575,71.385208 655.20925,71.744658 C 659.75394,72.418618 680.17566,71.143828 681.67368,70.072628 C 682.57143,69.430588 683.40387,69.416708 683.42863,70.109398 C 683.45327,70.802148 684.71551,71.359708 686.322,71.334628 C 687.61592,71.314398 688.05664,71.040278 687.93916,70.581288 C 687.58679,69.204218 682.05066,66.426028 677.69995,66.211478 C 674.87813,66.072238 672.6024,65.347968 672.71015,64.592918 C 672.95789,62.857778 662.87783,55.813518 658.32227,54.527528 C 655.68223,53.782318 654.7681,54.009718 654.1904,55.456428 C 652.59474,59.451618 650.74509,57.829338 651.36308,53.007458 C 651.90147,48.805658 651.46366,48.232948 648.94056,49.616668 C 647.26717,50.534318 645.22278,50.794228 644.46722,50.189068 C 643.64015,49.526738 644.08074,49.201548 645.42534,49.393918 C 646.85016,49.597848 647.21963,49.106838 646.47334,48.046358 C 645.82984,47.132088 644.14436,47.038628 642.7384,47.809688 C 640.24011,49.179738 634.62193,45.633948 635.45053,43.217558 C 635.68029,42.547538 634.92904,42.651998 633.81472,43.448808 C 632.70052,44.245538 630.30257,44.502668 628.57377,44.009768 C 627.18709,43.614408 626.48236,43.485668 626.26288,43.751708 z M 612.65285,45.158628 C 611.57812,45.004818 610.69218,45.499108 610.71805,46.226788 C 610.74398,46.954378 611.6711,47.615488 612.7459,47.769228 C 613.82056,47.923038 614.70927,51.708638 614.68336,50.980958 C 614.65738,50.253278 613.72751,45.312498 612.65285,45.158628 z M 451.92949,96.185388 C 449.68933,96.875618 449.32293,97.316098 450.87352,97.309168 C 452.27662,97.302958 453.934,96.747008 454.55795,96.128658 C 455.18187,95.510218 453.95647,95.560788 451.92949,96.185388 z M 475.25163,92.453728 C 474.59696,92.566808 473.35213,93.058908 471.3608,93.993268 C 468.31183,95.423878 463.62462,97.156678 460.97718,97.874958 C 457.99978,98.682728 457.38198,99.100898 459.47913,98.896378 C 461.34375,98.714478 462.88854,99.224678 462.91778,100.0445 C 462.95522,101.09605 463.71297,100.87803 465.30257,99.302568 C 466.54186,98.074248 469.04681,96.674068 470.88993,96.158838 C 472.73303,95.643648 474.78058,94.331418 475.50056,93.288108 C 475.97085,92.606648 475.9063,92.340668 475.25163,92.453728 z M 513.3306,87.610568 C 515.60852,86.842688 516.91442,86.683008 516.93576,87.280868 C 516.96215,88.022368 515.92031,88.945338 514.59875,89.365378 C 513.27719,89.785378 509.81696,91.037898 506.91495,92.115788 C 501.54742,94.109298 499.59626,93.816738 503.93964,91.666798 C 507.80282,89.754518 511.05269,88.378448 513.3306,87.610568 z M 560.42269,79.282078 C 559.4085,79.299958 557.01449,80.120778 553.49318,81.670988 C 547.32655,84.385718 547.23343,84.433488 551.93183,83.990718 C 554.59593,83.739658 557.86347,82.603678 559.18688,81.510808 C 561.0283,79.990228 561.43684,79.264208 560.42269,79.282078 z M 574.01234,79.250148 C 571.77216,79.940418 571.2973,80.411178 572.84784,80.404298 C 574.25091,80.398078 575.90842,79.842138 576.53229,79.223778 C 577.15622,78.605348 576.03941,78.625558 574.01234,79.250148 z "
       style="fill:black" />
    <path
       id="path1640"
       d="M 233.18298,113.95521 C 245.6405,120.14262 251.97167,123.80173 261.64,130.49346 C 267.48438,134.5385 272.69653,138.45492 273.21838,139.17438 C 273.74021,139.8938 275.32698,140.80051 276.73321,141.17127 C 278.13944,141.54194 279.08801,142.35768 278.84607,142.95264 C 278.60413,143.54762 279.43052,144.66381 280.66188,145.46445 C 282.6523,146.75859 282.59771,146.80872 280.59697,146.14736 C 279.3592,145.73821 277.36958,146.04593 276.13948,146.81726 C 274.2102,148.02688 273.34981,147.80747 269.74241,145.27969 C 265.50197,142.30829 259.60609,140.72738 258.93617,142.37461 C 258.73449,142.87055 261.85967,145.89448 265.91344,149.11344 C 269.96727,152.33238 273.7519,155.9754 274.34745,157.15403 C 274.943,158.33264 276.58902,159.8628 277.97589,160.61576 C 279.3628,161.36873 281.10375,163.23011 281.83236,164.73771 C 282.56104,166.2453 283.68168,167.62911 284.34044,167.81475 C 284.99917,168.00035 286.1223,168.45737 286.83595,168.82962 C 287.5496,169.20183 287.89169,170.0964 287.58093,170.83499 C 286.37776,173.6944 280.4754,179.5587 278.90488,179.43616 C 277.99613,179.36526 276.60251,179.791 275.82461,180.38241 C 275.04683,180.97388 273.85648,180.88965 273.12904,180.20829 C 272.37186,179.49911 269.80138,179.84701 267.14583,180.96704 C 264.50739,182.07988 261.93559,182.36563 261.18739,181.66491 C 260.36307,180.89282 258.95126,181.26074 257.43554,182.6927 C 256.10529,183.94954 254.41411,184.72687 253.61877,184.40342 C 252.72469,184.03979 251.62928,185.10948 250.79655,187.15698 C 249.66959,189.92821 249.16945,190.18534 247.66271,188.93263 C 246.48298,187.9518 245.0427,187.98599 243.53837,188.95776 C 242.27562,189.77348 240.23932,190.19774 239.01801,189.95674 C 235.90561,189.34246 234.60164,191.32791 236.96231,193.09296 C 238.04529,193.90267 238.7347,195.18845 238.42225,195.95656 C 237.98051,197.0428 237.63149,196.95112 237.03369,195.53372 C 235.93406,192.9266 235.01691,192.83665 233.28998,195.14616 C 232.45658,196.26081 231.41082,196.67711 230.94214,196.0356 C 229.48146,194.03627 223.82616,196.92152 223.59954,199.78814 C 223.38616,202.48641 221.25073,202.57209 221.21963,199.8843 C 221.2066,198.75272 220.63845,198.7096 219.23174,199.71423 C 218.15143,200.48586 216.33566,200.7354 215.1776,200.26445 C 213.99034,199.78158 212.82576,200.11712 212.4398,201.06623 C 212.06337,201.99193 211.32658,202.26578 210.86253,201.63064 C 210.39857,200.99552 209.16392,200.74383 208.10813,201.07794 C 207.05233,201.41203 205.53922,201.0215 204.74505,200.2777 C 203.32786,198.95037 202.69745,199.54926 198.90665,205.56411 C 197.86278,207.22046 197.50186,206.63879 196.79054,202.22089 C 196.31749,199.28261 196.55135,195.71835 197.32426,194.28063 C 198.09722,192.84296 198.16123,192.00487 197.44478,192.41447 C 196.72835,192.82406 194.46909,193.06971 192.47563,192.94717 C 189.60144,192.77052 188.14007,193.6165 185.22796,197.16393 C 181.81049,201.32702 179.04252,202.65275 180.28476,199.55149 C 180.58272,198.80768 179.32678,199.21888 177.49745,200.47501 L 174.20168,202.82321 L 174.71827,199.98318 C 175.2666,197.21793 175.24389,197.25792 173.51435,199.28076 C 171.09559,202.10968 168.96064,199.66396 170.50798,195.85921 C 171.19235,194.17643 172.21196,192.71743 172.82052,192.61464 C 173.42913,192.51182 173.134,193.86358 172.14406,195.67338 L 170.36793,198.99425 L 173.0396,196.9597 C 174.5143,195.82943 176.02594,195.27461 176.36537,195.75864 C 176.70482,196.24264 178.41024,195.52512 180.21825,194.13356 L 183.52742,191.578 L 180.22723,190.44867 C 175.10301,188.63883 169.98281,190.50683 168.04856,194.92995 C 167.14939,196.98618 166.45876,197.98019 166.51063,197.14181 C 166.64619,194.94753 161.79516,195.65538 160.85653,197.96346 C 160.33104,199.25563 159.89133,199.26177 159.39164,198.07706 C 158.89198,196.89229 159.66002,195.62619 162.07755,193.56566 C 163.92702,191.98931 165.4184,191.43476 165.3672,192.27895 C 165.2021,195.00182 166.95153,194.59878 167.94513,191.69589 C 168.72971,189.40356 168.46242,188.83171 166.47379,188.68581 C 165.12996,188.58721 163.26593,188.22224 162.31744,187.91763 C 161.31076,187.59433 160.03701,188.4616 159.26717,190.01099 C 156.7447,195.08771 150.50758,198.58634 152.37537,193.87594 C 152.82855,192.73318 152.6431,192.31999 151.88117,192.82378 C 150.64045,193.64398 146.11232,193.92733 146.42505,193.15846 C 146.51271,192.94298 148.67834,191.75741 151.23518,190.57494 C 158.41558,187.25414 158.1882,186.11233 149.61905,183.03719 C 145.54306,181.57441 141.63557,180.21817 140.98535,180.02256 C 140.33516,179.82693 137.34952,180.59953 134.33786,181.71701 C 128.08831,184.03598 127.5173,183.24678 133.4176,180.49153 C 139.53721,177.63385 136.60006,177.68006 125.41239,180.64078 C 119.79427,182.12755 115.34036,182.90708 115.55562,182.37781 C 115.77091,181.84851 116.61771,181.33355 117.38041,181.20473 C 118.14315,181.07588 118.92194,180.15223 119.13705,179.15273 C 119.35222,178.1532 120.30385,177.40821 121.24549,177.45657 C 122.39018,177.51541 122.45751,177.86221 121.50759,178.55625 C 120.5961,179.2222 120.66244,179.47607 121.62527,179.31343 C 122.4507,179.174 123.15459,178.25572 123.17457,177.24804 C 123.20016,175.96026 123.90958,175.72239 125.705,176.43287 C 128.75674,177.64051 136.51297,175.90801 133.58522,174.67227 C 132.58656,174.25073 131.31871,174.20099 130.77928,174.59515 C 130.23983,174.98926 128.02931,174.94938 125.85029,174.50583 C 123.67131,174.06228 120.18819,174.19192 118.14945,174.77883 C 114.79951,175.74306 114.12671,175.3379 115.37636,173.22549 C 115.61201,172.82719 114.83839,172.44752 113.66074,172.38591 C 112.00474,172.29926 112.34398,171.90533 115.06152,170.6857 C 118.05113,169.34395 118.58821,169.45013 118.90219,171.18365 C 119.15943,172.60395 119.45886,172.74683 119.86266,171.78704 C 120.58091,170.07972 117.92055,167.47528 116.41683,168.39955 C 115.81001,168.7726 113.4243,169.70861 111.09704,170.49209 C 106.57922,172.0132 107.74751,170.44461 113.23635,167.6736 C 116.47584,166.03819 116.51129,165.99473 114.12542,165.83623 C 111.69336,165.67465 111.71973,165.69786 114.49673,164.92323 C 116.03539,164.49402 117.77087,164.63845 118.41167,165.23858 C 119.05245,165.83871 119.8005,165.83527 120.03436,165.26011 C 120.64686,163.7541 118.75386,163.25792 109.27764,162.23327 C 99.004792,161.12247 99.364679,161.27695 102.8258,159.60946 C 106.63817,157.77266 105.78964,156.3238 101.39993,157.18531 C 99.177103,157.62153 98.0609,157.37232 98.377283,156.59445 C 98.654157,155.91375 99.733585,155.41637 100.76326,155.43681 C 101.79297,155.45722 102.88334,154.75858 103.21216,153.95006 C 103.58233,153.03989 103.07875,152.49049 101.82967,152.4657 C 100.1267,152.43189 100.13491,152.14766 101.9255,150.66041 C 104.40599,148.59997 106.239,144.612 104.95265,144.08886 C 104.46243,143.88947 102.45323,144.46351 100.455,145.3808 C 96.660358,147.12275 93.912302,147.06682 96.172821,145.27077 C 96.892951,144.69865 94.872112,145.5603 91.634984,147.18478 C 88.39792,148.80925 85.20255,149.8888 84.543985,149.62101 C 83.885399,149.35314 85.320129,148.24589 87.742739,147.16243 C 90.165392,146.07892 91.94241,144.68565 91.689379,144.08588 C 91.436433,143.48606 88.862916,142.04357 85.985402,140.84404 C 83.08827,139.63633 81.658522,138.74668 81.63184,138.29325 C 81.6052,137.83986 82.994871,137.83223 85.853146,138.37853 C 87.895306,138.76885 89.368852,138.58411 89.125346,138.00687 C 88.881882,137.42964 90.010764,136.83165 91.671212,136.63049 C 94.090395,136.33747 94.375365,136.06352 92.87396,135.41725 C 91.843418,134.9736 91.096668,134.38055 91.234622,134.04123 C 91.621569,133.08981 95.672815,131.5192 96.700897,131.93731 C 97.204393,132.14207 98.524004,130.11578 99.594135,127.43932 C 101.52186,122.61809 101.05128,120.6482 98.593139,123.27277 C 97.891848,124.02156 97.017826,124.19134 96.650686,123.68867 C 96.283482,123.18603 95.463771,123.14114 94.845366,123.59289 C 92.4716,125.32718 90.618025,123.17348 91.86375,120.11047 C 93.18435,116.86325 98.713283,111.33396 100.09831,111.89721 C 100.5483,112.08018 102.08364,111.25585 103.54987,110.03796 C 106.23425,107.80824 121.48603,103.00374 123.40143,103.78273 C 123.96764,104.01299 125.28496,103.76324 126.33318,103.20169 C 127.99272,102.31263 146.03144,100.50817 149.32218,100.91783 C 151.3778,101.1737 162.71763,101.77637 165.36257,101.76649 C 167.82583,101.75728 178.67715,102.76013 195.75369,104.47906 C 205.70898,105.48119 226.91503,110.84207 233.18298,113.95521 z M 235.53944,141.30065 C 231.39999,139.37855 231.1803,139.43811 229.12404,142.94762 C 217.16425,163.35967 209.12044,169.86797 193.94072,171.55377 C 186.22953,172.41013 184.94306,172.22146 175.81425,168.50899 C 169.07767,165.76935 165.65501,163.85959 164.84368,162.34511 C 164.19321,161.13082 163.51686,160.37505 163.36425,160.75039 C 163.21164,161.12569 161.22028,159.25443 158.91048,156.5274 C 153.23962,149.83224 149.90228,140.45469 150.69697,133.46773 C 151.46235,126.73929 150.82903,126.64713 137.6285,131.41596 C 132.98372,133.09395 127.79097,134.86491 126.0873,135.37623 C 124.38369,135.88759 122.51262,137.5383 121.9179,139.0006 C 120.46709,142.56809 120.74124,148.02707 122.43555,148.71614 C 123.18854,149.02233 124.25761,150.28628 124.77444,151.51157 C 126.12426,154.71174 138.10834,164.8816 146.92241,170.30748 C 155.7531,175.74352 170.39545,180.69774 178.40255,180.98185 C 187.90604,181.31903 202.78256,180.39393 209.6134,179.06248 C 220.94539,176.85358 238.5839,169.6084 242.74619,165.44048 C 249.61012,158.56706 250.19005,157.36023 248.26528,154.13675 C 247.28905,152.50183 245.90558,151.33466 245.16924,151.45901 C 244.43292,151.58338 244.22005,150.65355 244.71722,149.43091 C 245.37162,147.82187 244.96099,146.90555 243.13757,146.16397 C 241.75211,145.60051 240.40203,144.69966 240.18392,144.18253 C 239.96581,143.66539 237.88919,142.3917 235.53944,141.30065 z M 173.74276,131.91631 C 171.84747,131.64698 169.983,133.86017 167.40929,138.42006 C 166.03665,140.85207 165.29426,142.10162 165.33206,143.17899 C 165.36989,144.25636 166.19477,145.15624 167.71434,146.91419 C 169.4098,148.87554 172.91249,151.7297 175.5478,153.29191 L 180.33882,156.16245 L 182.12103,151.78006 C 183.70923,147.87484 183.48496,146.71465 180.22292,140.22633 C 177.56406,134.93754 175.63803,132.18565 173.74276,131.91631 z M 234.58287,186.73439 C 233.98913,186.49291 233.28315,186.79062 233.04174,187.38442 C 232.80028,187.97821 233.09799,188.68412 233.69177,188.92559 C 234.28558,189.16706 234.99149,188.86934 235.23294,188.27556 C 235.47442,187.68176 235.17669,186.97584 234.58287,186.73439 z M 207.76494,192.852 C 207.63144,192.60801 207.406,192.49222 207.03452,192.55496 C 206.29154,192.68045 205.44615,193.4956 205.08395,194.38623 C 204.72175,195.27688 204.97956,195.90633 205.72261,195.78088 C 206.46566,195.65536 207.39662,194.80421 207.75884,193.91352 C 207.93998,193.46818 207.89841,193.09601 207.76494,192.852 z M 189.74309,194.95699 C 190.33689,195.19843 190.55727,196.09441 190.19509,196.98504 C 189.83289,197.87571 189.02498,198.42435 188.43117,198.18289 C 187.83741,197.9414 187.64164,196.98462 188.0039,196.09394 C 188.36614,195.20327 189.14933,194.7155 189.74309,194.95699 z M 111.38118,163.51434 C 111.74811,163.58726 111.78502,163.91666 111.54631,164.50365 C 111.20479,165.3435 109.68093,166.21458 108.19172,166.47325 C 106.70259,166.73191 105.68197,166.53973 105.88813,166.03293 C 106.09424,165.52616 107.55724,164.6304 109.18185,164.03857 C 110.31733,163.62498 111.01425,163.44142 111.38118,163.51434 z M 143.43662,182.36717 C 143.93841,182.57121 144.00955,183.57483 143.60704,184.56446 C 143.2046,185.55406 142.71441,185.91519 142.49195,185.38776 C 142.26951,184.8603 140.81275,184.57493 139.28672,184.72266 C 137.91221,184.85569 137.25715,184.91278 137.28541,184.75996 C 137.31369,184.60716 138.08893,184.22507 139.57442,183.49195 C 141.22369,182.67798 142.93483,182.16311 143.43662,182.36717 z M 157.99508,188.42968 C 157.75636,188.38868 157.18514,188.73835 156.12281,189.37063 C 154.83245,190.13866 154.14615,190.82008 154.06183,191.29887 C 153.97756,191.77764 154.50332,192.02182 155.69385,191.82072 C 156.48635,191.68685 157.43967,190.72164 157.82909,189.70989 C 158.13997,188.90233 158.23379,188.47064 157.99508,188.42968 z M 150.31166,187.78762 C 150.97142,188.08403 149.24323,189.04462 146.44336,189.97392 C 143.64352,190.90322 140.12254,192.97717 138.60774,194.58995 L 135.83298,197.57565 L 138.06196,194.01335 C 140.79241,189.64543 143.63444,187.19508 144.52444,188.41326 C 144.89633,188.92225 146.04315,188.8554 147.13645,188.26967 C 148.2298,187.68392 149.65198,187.49124 150.31166,187.78762 z M 135.79377,185.28829 C 135.55232,185.88205 134.37623,186.61677 133.18499,186.99373 C 131.97679,187.37603 131.23377,187.25671 131.4787,186.65447 C 131.72021,186.06069 132.86007,185.24035 134.05136,184.86341 C 135.25961,184.48107 136.0387,184.68601 135.79377,185.28829 z "
       style="fill:black" />
    <path
       style="fill:black"
       d="M 122.05647,42.070028 C 123.17766,42.383378 123.55701,43.110518 122.87681,43.655288 C 122.1966,44.200038 121.23645,44.477418 120.76966,44.346968 C 120.30285,44.216458 120.02921,43.594228 120.05518,42.866588 C 120.08119,42.138968 120.93535,41.756648 122.05647,42.070028 z M 117.83161,43.751708 C 118.05109,44.017778 117.78529,44.678618 117.09805,45.881928 C 115.8887,47.999468 116.05256,48.503298 118.10886,48.273798 C 119.56578,48.111138 117.64833,49.334708 113.84679,50.999718 C 108.87654,53.176488 108.09135,54.086608 110.88437,54.164278 C 113.0207,54.223638 116.95,53.400348 119.60647,52.383648 C 122.68934,51.203758 125.82902,51.191518 128.26748,52.318588 C 130.36858,53.289738 133.00605,49.659208 134.14097,49.378418 C 137.25652,48.607568 145.02152,49.677958 143.73873,50.705158 C 141.19273,52.744168 145.13969,50.716618 150.61774,50.306018 C 158.35549,49.725978 159.59936,50.285048 154.06917,51.873378 C 148.02627,53.608958 151.533,54.649508 159.70971,53.525358 C 168.5022,52.316488 170.13916,53.174048 163.04463,55.286158 C 157.3625,56.977768 157.31122,57.029538 161.98286,57.399998 C 164.64845,57.611378 172.29001,57.366548 178.99255,56.805918 C 193.38266,55.602288 194.97435,56.478398 182.00198,58.475768 C 172.19795,59.985308 171.92024,60.937338 181.50143,60.219148 C 184.69595,59.979698 187.98617,60.341628 188.92613,61.013858 C 189.86616,61.686028 191.29477,61.820108 191.98601,61.266448 C 192.67738,60.712818 194.69348,60.655988 196.48329,61.167578 C 199.08182,61.910208 199.13452,62.182628 196.98333,62.512678 C 195.39408,62.756478 194.93323,63.791768 195.79711,65.043718 C 196.83485,66.547328 196.34519,66.618528 194.14003,65.409158 C 192.42855,64.470498 190.62298,64.105148 190.11675,64.510558 C 189.6106,64.915978 191.31609,65.897698 193.98107,66.796008 C 197.40786,67.951108 199.14631,67.791208 199.92365,66.121758 C 200.52822,64.823488 201.84317,63.946398 202.84091,64.225268 C 203.83863,64.504138 204.18752,65.199308 203.55538,65.705608 C 201.91615,67.018358 223.46102,75.650038 229.99543,75.342698 C 235.82384,75.068558 237.11854,76.176328 232.22922,77.247678 C 229.7788,77.784628 231.11209,78.501588 239.11084,80.979198 C 248.22758,83.803078 248.91077,83.801538 246.55946,81.102608 C 244.23346,78.432578 244.52331,78.399718 249.42621,80.623228 C 252.40803,81.975508 254.47931,82.540968 253.98681,81.822648 C 253.49444,81.104408 255.90668,81.207568 259.45545,82.145948 C 263.00421,83.084268 265.5632,84.220908 265.06676,84.618398 C 264.5704,85.015838 266.13388,85.541538 268.5315,85.812858 C 274.02371,86.434228 270.75275,88.153468 265.06894,87.632238 C 262.9375,87.436778 264.82431,88.028278 269.29863,88.889868 C 273.77301,89.751488 278.57969,91.260308 279.92058,92.235518 C 281.44831,93.346518 278.46804,93.232768 272.03785,91.990808 C 261.5034,89.956118 256.14812,90.035278 263.59391,92.116528 C 265.88772,92.757698 267.69584,93.884188 267.66994,94.611828 C 267.64403,95.339418 266.55838,95.645858 265.23458,95.287058 C 263.63009,94.852218 263.83752,95.313728 265.73202,96.706758 C 270.568,100.26277 263.63115,97.766508 257.29119,93.669428 C 251.32886,89.816328 235.79928,84.590888 233.46412,85.653368 C 232.65374,86.022088 233.98452,86.582668 236.38095,86.845358 C 238.77739,87.108018 240.72737,87.904958 240.70054,88.655388 C 240.67158,89.469878 243.02952,90.393988 246.5395,90.890148 C 251.24364,91.555098 252.31848,92.081858 251.81191,93.644468 C 251.35318,95.059428 252.87475,96.235058 257.47322,97.788208 C 268.84686,101.62965 266.44269,102.264 254.70701,98.521668 C 242.71786,94.698448 233.05659,93.345918 238.45745,96.239578 C 240.03129,97.082798 243.03128,98.569478 245.13532,99.537448 C 247.23934,100.50546 246.00676,100.13029 242.31374,98.748768 C 238.62074,97.367218 231.32879,95.097928 226.16254,93.706918 C 218.42326,91.623078 216.9769,90.892958 217.98391,89.462248 C 218.65613,88.507168 218.45297,87.484088 217.51572,87.222058 C 216.57849,86.960098 215.40697,87.355198 214.9639,88.090768 C 214.47445,88.903498 210.61623,84.172808 205.04056,82.467758 C 199.99407,80.924508 194.9371,79.783288 193.84148,79.940058 C 192.74598,80.096828 185.19228,78.612708 177.07852,76.685858 C 161.05005,72.879368 159.05638,72.773138 163.29041,76.071138 C 165.47872,77.775528 165.29792,77.857718 162.29508,76.320228 C 153.47028,71.801958 147.32662,69.680948 148.65319,71.603128 C 149.58657,72.955628 147.05773,76.944398 140.13263,75.008678 C 134.74276,73.502138 127.29997,76.439638 123.57076,76.467958 C 119.84166,76.496198 112.20634,75.602648 106.65412,74.451438 C 93.903345,71.807628 91.30874,71.385208 88.885225,71.744658 C 84.340534,72.418618 63.918829,71.143828 62.420809,70.072628 C 61.523049,69.430588 60.690617,69.416708 60.665848,70.109398 C 60.641205,70.802148 59.378974,71.359708 57.77248,71.334628 C 56.478562,71.314398 56.037851,71.040278 56.155325,70.581288 C 56.507684,69.204218 62.043829,66.426028 66.394531,66.211478 C 69.216347,66.072238 71.492088,65.347968 71.384328,64.592918 C 71.136596,62.857778 81.216654,55.813518 85.772216,54.527528 C 88.412259,53.782318 89.326379,54.009718 89.904077,55.456428 C 91.499743,59.451618 93.349386,57.829338 92.731401,53.007458 C 92.193022,48.805658 92.630832,48.232948 95.153927,49.616668 C 96.827307,50.534318 98.871696,50.794228 99.627255,50.189068 C 100.45433,49.526738 100.01374,49.201548 98.669149,49.393918 C 97.244322,49.597848 96.874847,49.106838 97.621134,48.046358 C 98.264645,47.132088 99.950115,47.038628 101.35608,47.809688 C 103.85437,49.179738 109.47256,45.633948 108.64395,43.217558 C 108.41419,42.547538 109.16544,42.651998 110.27975,43.448808 C 111.39396,44.245538 113.79191,44.502668 115.52072,44.009768 C 116.90739,43.614408 117.61212,43.485668 117.83161,43.751708 z M 131.44163,45.158628 C 132.51637,45.004818 133.40232,45.499108 133.37643,46.226788 C 133.35051,46.954378 132.42339,47.615488 131.34859,47.769228 C 130.27394,47.923038 129.38522,51.708638 129.41112,50.980958 C 129.43711,50.253278 130.36698,45.312498 131.44163,45.158628 z M 292.16499,96.185388 C 294.40515,96.875618 294.77155,97.316098 293.22096,97.309168 C 291.81786,97.302958 290.16048,96.747008 289.53652,96.128658 C 288.91261,95.510218 290.138,95.560788 292.16499,96.185388 z M 268.84284,92.453728 C 269.49753,92.566808 270.74237,93.058908 272.73368,93.993268 C 275.78265,95.423878 280.46988,97.156678 283.11729,97.874958 C 286.0947,98.682728 286.7125,99.100898 284.61537,98.896378 C 282.75072,98.714478 281.20594,99.224678 281.1767,100.0445 C 281.13926,101.09605 280.38153,100.87803 278.79191,99.302568 C 277.55262,98.074248 275.04767,96.674068 273.20455,96.158838 C 271.36147,95.643648 269.3139,94.331418 268.59391,93.288108 C 268.12365,92.606648 268.1882,92.340668 268.84284,92.453728 z M 230.7639,87.610568 C 228.48597,86.842688 227.18007,86.683008 227.15873,87.280868 C 227.13234,88.022368 228.17417,88.945338 229.49574,89.365378 C 230.81731,89.785378 234.27752,91.037898 237.17953,92.115788 C 242.54707,94.109298 244.49823,93.816738 240.15484,91.666798 C 236.29168,89.754518 233.04181,88.378448 230.7639,87.610568 z M 183.6718,79.282078 C 184.68599,79.299958 187.08,80.120778 190.6013,81.670988 C 196.76794,84.385718 196.86107,84.433488 192.16265,83.990718 C 189.49855,83.739658 186.23102,82.603678 184.90761,81.510808 C 183.06618,79.990228 182.65764,79.264208 183.6718,79.282078 z M 170.08216,79.250148 C 172.32232,79.940418 172.79718,80.411178 171.24666,80.404298 C 169.84357,80.398078 168.18607,79.842138 167.5622,79.223778 C 166.93826,78.605348 168.05508,78.625558 170.08216,79.250148 z "
       id="path1642" />
</svg>
